<svg width="208" height="62" viewBox="0 0 208 62" fill="none" xmlns="http://www.w3.org/2000/svg">
<g filter="url(#filter0_d_107_6835)">
<rect x="4" width="200" height="54" rx="6" fill="url(#paint0_linear_107_6835)"/>
<path d="M29.2739 17.94H41.4179V18.952H36.7319C36.6292 19.832 36.4532 20.624 36.2039 21.328C35.9692 22.032 35.6832 22.6627 35.3459 23.22C35.6539 23.1173 35.9766 23.0807 36.3139 23.11C36.6659 23.1393 36.9886 23.242 37.2819 23.418C37.5459 23.5793 37.7586 23.7627 37.9199 23.968C38.0812 24.1587 38.2206 24.364 38.3379 24.584C38.4699 24.804 38.5946 25.0387 38.7119 25.288C38.8439 25.5373 39.0052 25.794 39.1959 26.058C39.4746 26.4393 39.8119 26.674 40.2079 26.762C40.6186 26.85 41.0879 26.828 41.6159 26.696L41.7479 27.18C41.4399 27.2973 41.1172 27.3927 40.7799 27.466C40.4426 27.5393 40.0832 27.5833 39.7019 27.598C39.2179 27.6127 38.7486 27.554 38.2939 27.422C37.8539 27.2753 37.4726 26.9453 37.1499 26.432C37.0326 26.2413 36.9299 26.0287 36.8419 25.794C36.7539 25.5447 36.6439 25.31 36.5119 25.09C36.3946 24.87 36.2406 24.6793 36.0499 24.518C35.8739 24.3567 35.6246 24.2467 35.3019 24.188C35.0526 24.144 34.8252 24.166 34.6199 24.254C34.1946 24.7673 33.7399 25.2073 33.2559 25.574C32.7866 25.9407 32.3099 26.256 31.8259 26.52C31.3419 26.784 30.8726 27.004 30.4179 27.18C29.9632 27.3413 29.5452 27.4807 29.1639 27.598L28.9439 27.004C29.6626 26.7253 30.3152 26.3513 30.9019 25.882C31.4886 25.4127 31.9946 24.848 32.4199 24.188C32.8452 23.5133 33.1752 22.7433 33.4099 21.878C33.6592 21.0127 33.7986 20.0373 33.8279 18.952H29.2739V17.94ZM42.7379 19.348C42.7379 18.8053 42.6866 18.402 42.5839 18.138C42.4812 17.874 42.2539 17.6907 41.9019 17.588L42.1659 17.06L45.8839 17.94C45.7226 18.028 45.5979 18.1673 45.5099 18.358C45.4219 18.5487 45.3779 18.842 45.3779 19.238V22.362H47.8639V23.374H45.3779V28.17H42.7379V19.348ZM30.8799 30.348V29.336H45.3779V35.87H42.7379V30.348H30.8799ZM64.9665 35.65H51.4585V31.184C51.4585 30.7 51.4072 30.326 51.3045 30.062C51.2018 29.7833 50.9745 29.6 50.6225 29.512L50.8865 28.984L54.0985 29.446H56.8925V27.598H49.0825V26.586H67.3425V27.598H59.5325V29.446H64.9665V35.65ZM50.8865 17.94H65.5165V18.952H62.9205V23.88H65.7365V24.892H50.6665V23.88H53.4825V18.952H50.8865V17.94ZM62.3265 34.638V30.458H54.0985V34.638H62.3265ZM56.2105 23.88H60.1925V18.952H56.2105V23.88ZM85.5071 24.496V26.036H93.3171V27.048H75.0571V26.036H82.8671V24.496H81.9871C81.2538 24.496 80.5938 24.4667 80.0071 24.408C79.4204 24.3493 78.9144 24.21 78.4891 23.99C78.0784 23.7553 77.7558 23.418 77.5211 22.978C77.3011 22.538 77.1911 21.944 77.1911 21.196C77.1911 20.448 77.3011 19.854 77.5211 19.414C77.7558 18.974 78.0784 18.644 78.4891 18.424C78.9144 18.1893 79.4204 18.0427 80.0071 17.984C80.5938 17.9253 81.2538 17.896 81.9871 17.896H86.3651C87.0984 17.896 87.7584 17.9253 88.3451 17.984C88.9318 18.0427 89.4304 18.1893 89.8411 18.424C90.2664 18.644 90.5891 18.974 90.8091 19.414C91.0438 19.854 91.1611 20.448 91.1611 21.196C91.1611 21.944 91.0438 22.538 90.8091 22.978C90.5891 23.418 90.2664 23.7553 89.8411 23.99C89.4304 24.21 88.9318 24.3493 88.3451 24.408C87.7584 24.4667 87.0984 24.496 86.3651 24.496H85.5071ZM91.1611 34.638V35.65H77.4331V33.692C77.4331 33.1493 77.3818 32.746 77.2791 32.482C77.1764 32.218 76.9491 32.0347 76.5971 31.932L76.8611 31.404L77.4771 31.492H88.3011V29.468H77.3671V28.456H90.9411V32.504H80.0731V34.638H91.1611ZM85.9031 23.484C86.4604 23.484 86.9078 23.4327 87.2451 23.33C87.5971 23.2127 87.8611 23.0587 88.0371 22.868C88.2278 22.6627 88.3524 22.4207 88.4111 22.142C88.4844 21.8487 88.5211 21.5333 88.5211 21.196C88.5211 20.8587 88.4844 20.5507 88.4111 20.272C88.3524 19.9787 88.2278 19.7367 88.0371 19.546C87.8611 19.3407 87.5971 19.1867 87.2451 19.084C86.9078 18.9667 86.4604 18.908 85.9031 18.908H82.4491C81.8918 18.908 81.4371 18.9667 81.0851 19.084C80.7478 19.1867 80.4838 19.3407 80.2931 19.546C80.1024 19.7367 79.9778 19.9787 79.9191 20.272C79.8604 20.5507 79.8311 20.8587 79.8311 21.196C79.8311 21.5333 79.8604 21.8487 79.9191 22.142C79.9778 22.4207 80.1024 22.6627 80.2931 22.868C80.4838 23.0587 80.7478 23.2127 81.0851 23.33C81.4371 23.4327 81.8918 23.484 82.4491 23.484H85.9031ZM108.88 19.348C108.88 18.8053 108.828 18.402 108.726 18.138C108.623 17.874 108.396 17.6907 108.044 17.588L108.308 17.06L112.026 17.94C111.864 18.028 111.74 18.1673 111.652 18.358C111.564 18.5487 111.52 18.842 111.52 19.238V35.65H108.88V19.348ZM102.698 25.068V20.03H95.8777V19.018H105.338V26.08H98.4077V31.294H105.778V32.306H95.7677V27.224C95.7677 26.6813 95.7164 26.278 95.6137 26.014C95.511 25.75 95.2837 25.5667 94.9317 25.464L95.1957 24.936L95.7677 25.068H102.698ZM122.506 25.068V20.03H115.686V19.018H125.146V26.08H118.216V31.294H125.586V32.306H115.576V27.224C115.576 26.6813 115.525 26.278 115.422 26.014C115.32 25.75 115.092 25.5667 114.74 25.464L115.004 24.936L115.576 25.068H122.506ZM125.938 23.902H128.688V19.348C128.688 18.8053 128.637 18.402 128.534 18.138C128.432 17.874 128.204 17.6907 127.852 17.588L128.116 17.06L131.834 17.94C131.673 18.028 131.548 18.1673 131.46 18.358C131.372 18.5487 131.328 18.842 131.328 19.238V35.65H128.688V24.914H125.938V23.902ZM154.113 19.348C154.113 18.8053 154.062 18.402 153.959 18.138C153.856 17.874 153.629 17.6907 153.277 17.588L153.541 17.06L157.259 17.94C157.098 18.028 156.973 18.1673 156.885 18.358C156.797 18.5487 156.753 18.842 156.753 19.238V24.782H159.239V25.794H156.753V35.65H154.113V19.348ZM141.001 31.822C142.248 31.4553 143.34 30.9273 144.279 30.238C145.218 29.5487 145.995 28.7493 146.611 27.84C147.242 26.916 147.711 25.9113 148.019 24.826C148.327 23.7407 148.481 22.6187 148.481 21.46V20.03H141.661V19.018H151.121V21.02C151.121 22.5453 150.886 23.9533 150.417 25.244C149.962 26.52 149.302 27.6493 148.437 28.632C147.586 29.6 146.545 30.4067 145.313 31.052C144.096 31.6973 142.732 32.152 141.221 32.416L141.001 31.822ZM174.472 19.348C174.472 18.8053 174.42 18.402 174.318 18.138C174.215 17.874 173.988 17.6907 173.636 17.588L173.9 17.06L177.618 17.94C177.456 18.028 177.332 18.1673 177.244 18.358C177.156 18.5487 177.112 18.842 177.112 19.238V35.65H174.472V19.348ZM160.81 31.822C162.056 31.4553 163.149 30.9273 164.088 30.238C165.026 29.5487 165.804 28.7493 166.42 27.84C167.05 26.916 167.52 25.9113 167.828 24.826C168.136 23.7407 168.29 22.6187 168.29 21.46V20.03H161.47V19.018H170.93V21.02C170.93 22.5453 170.695 23.9533 170.226 25.244C169.771 26.52 169.111 27.6493 168.246 28.632C167.395 29.6 166.354 30.4067 165.122 31.052C163.904 31.6973 162.54 32.152 161.03 32.416L160.81 31.822Z" fill="#3B3B3B"/>
</g>
<defs>
<filter id="filter0_d_107_6835" x="0" y="0" width="208" height="62" filterUnits="userSpaceOnUse" color-interpolation-filters="sRGB">
<feFlood flood-opacity="0" result="BackgroundImageFix"/>
<feColorMatrix in="SourceAlpha" type="matrix" values="0 0 0 0 0 0 0 0 0 0 0 0 0 0 0 0 0 0 127 0" result="hardAlpha"/>
<feOffset dy="4"/>
<feGaussianBlur stdDeviation="2"/>
<feComposite in2="hardAlpha" operator="out"/>
<feColorMatrix type="matrix" values="0 0 0 0 0 0 0 0 0 0 0 0 0 0 0 0 0 0 0.25 0"/>
<feBlend mode="normal" in2="BackgroundImageFix" result="effect1_dropShadow_107_6835"/>
<feBlend mode="normal" in="SourceGraphic" in2="effect1_dropShadow_107_6835" result="shape"/>
</filter>
<linearGradient id="paint0_linear_107_6835" x1="104" y1="0" x2="104" y2="77.5" gradientUnits="userSpaceOnUse">
<stop stop-color="#FFBD3D"/>
<stop offset="0.55" stop-color="#FFBD3D"/>
<stop offset="1" stop-color="#9E7018"/>
</linearGradient>
</defs>
</svg>
